<svg version="1.1" xmlns="http://www.w3.org/2000/svg" xmlns:xlink="http://www.w3.org/1999/xlink" width="124.64949" height="79.79389" viewBox="0,0,124.64949,79.79389"><g transform="translate(-177.99569,-136.54784)"><g data-paper-data="{&quot;isPaintingLayer&quot;:true}" fill-rule="nonzero" stroke="none" stroke-width="1" stroke-linecap="butt" stroke-linejoin="miter" stroke-miterlimit="10" stroke-dasharray="" stroke-dashoffset="0" style="mix-blend-mode: normal"><path d="M249.15569,203.03173c-0.11,0.14 -0.22,0.28 -0.35,0.42c-2.16,2.47 -4.96,3.72 -6.92,4.44c-3.71,1.46 -6.89,3.23 -9.44,5.26c-0.13,0.11 -0.26,0.21 -0.4,0.31c-2.48,1.79 -5.58,2.74 -9.5,2.87c-0.13,0.01 -0.26,0.01 -0.39,0.01c-3.04,0 -5.96,-1.08 -8.44,-3.12c-1.21,-0.99 -2.21,-2.16 -2.98,-3.45c-1.61,0.62 -3.34,0.94 -5.11,0.94c-0.66,0 -1.29,-0.05 -1.91,-0.16c-0.42,-0.06 -1.3,-0.18 -2.66,-0.37c-0.28,-0.03 -1.61,-0.16 -7.52,-0.65c-0.06,0 -0.12,-0.01 -0.18,-0.02c-4.24,-0.42 -7.03,-1.21 -9.35,-2.64c-0.11,-0.06 -0.22,-0.13 -0.32,-0.21c-3.56,-2.37 -5.69,-6.32 -5.69,-10.55c0,-6.84 4.54,-12.19 11.3,-13.32c0.09,-0.01 0.17,-0.02 0.26,-0.04c0.81,-0.11 1.66,-0.16 2.53,-0.17c0.02,-0.15 0.05,-0.3 0.08,-0.46c0.04,-0.22 0.09,-0.44 0.15,-0.66c0.89,-3.54 1.81,-7.6 2.76,-12.16c-3.61,-0.58 -6.06,-2.66 -6.95,-3.42c-1.53,-1.3 -2.68,-3 -3.32,-4.9c-1.54,-4.63 -0.34,-9.67 3.14,-13.16c2.15,-2.15 4.83,-3.56 7.73,-4.07c0.63,-0.11 1.61,-0.29 2.95,-0.56l0.15,-0.03c2.97,-0.55 6.38,-0.95 10.43,-1.22c2.92,-0.2 2.92,-0.2 3.36,-0.2c0.46,0 0.92,0.03 1.38,0.09c4.28,0.54 8,2.96 10.19,6.66c1.02,1.71 1.83,3.8 2.58,6.6c0.45,1.66 0.67,2.39 0.76,2.66c0.2,0.47 0.49,1.12 0.86,1.95c0.15,0.33 0.28,0.67 0.39,1.01c0.01,0.02 0.19,0.54 0.88,2.04c0.05,0.12 0.1,0.23 0.15,0.35c1.35,3.22 3.46,8.26 6.33,15.12c0.05,0.13 0.11,0.26 0.16,0.39c0.31,0.83 0.68,1.81 1.11,2.93c3.59,-0.27 7.08,0.87 9.96,3.23c0.29,0.23 0.57,0.48 0.83,0.74c2.74,2.74 3.32,6.14 3.51,7.26c0.05,0.34 0.09,0.68 0.12,1.03c0.33,4.48 -1.24,7.49 -2.62,9.23zM202.42569,210.25173c-1.25,-0.39 -2.42,-0.99 -3.44,-1.76c1.02,0.78 2.18,1.39 3.44,1.76z" fill="#00cccc"/><path d="M237.95111,194.21753c-0.412,0.47 -1.262,0.938 -2.551,1.407c-4.811,1.877 -8.943,4.193 -12.402,6.949c-0.646,0.469 -1.791,0.732 -3.432,0.791c-0.47,0 -0.954,-0.206 -1.451,-0.615c-0.499,-0.41 -0.748,-0.88 -0.748,-1.407c0,-0.704 0.792,-1.612 2.375,-2.728c1.113,-0.703 2.229,-1.437 3.344,-2.199c0.057,-0.292 -0.91,-3.752 -2.906,-10.379c-3.228,-0.058 -8.305,0.996 -15.229,3.165c-0.412,0.118 -0.647,0.352 -0.705,0.704c-0.059,0.352 -0.147,0.937 -0.264,1.758c-0.113,0.176 -0.225,0.439 -0.337,0.791c0,0.235 0.337,0.485 1.012,0.749c0.673,0.265 1.1,0.515 1.275,0.748c0.176,0.235 0.264,0.527 0.264,0.88c0,0.703 -0.308,1.364 -0.924,1.98c-0.615,0.615 -1.363,0.923 -2.242,0.923c0.058,0 -0.998,-0.146 -3.167,-0.439c-0.411,-0.058 -3.079,-0.293 -8.005,-0.703c-2.346,-0.234 -3.9,-0.586 -4.661,-1.056c-0.528,-0.352 -0.792,-0.821 -0.792,-1.407c0,-1.408 0.704,-2.229 2.111,-2.463c0.82,-0.117 1.876,-0.059 3.166,0.176c0.293,0.118 2.608,0.322 6.949,0.615c0.352,-2.463 0.938,-5.894 1.759,-10.291c1.817,-7.213 3.724,-16.361 5.718,-27.444c-0.587,-0.116 -1.202,-0.176 -1.847,-0.176c-1.115,0 -2.771,0.323 -4.971,0.968c-2.198,0.646 -3.826,0.968 -4.882,0.968c-0.41,0 -0.997,-0.321 -1.759,-0.968c-0.235,-0.704 -0.074,-1.333 0.483,-1.891c0.557,-0.557 1.173,-0.894 1.848,-1.012c0.674,-0.117 1.744,-0.322 3.211,-0.616c2.521,-0.469 5.57,-0.82 9.147,-1.056c1.7,-0.116 2.58,-0.176 2.639,-0.176c0.938,0.118 1.642,0.572 2.111,1.363c0.469,0.792 0.938,2.067 1.407,3.826c0.586,2.171 0.981,3.49 1.188,3.959c0.205,0.47 0.542,1.231 1.012,2.287c0.233,0.703 0.673,1.759 1.319,3.166c1.349,3.226 3.459,8.269 6.334,15.129c1.055,2.815 2.727,7.097 5.014,12.843c0.996,-0.117 2.287,-0.616 3.869,-1.495c1.584,-0.88 2.756,-1.319 3.52,-1.319c0.703,0 1.377,0.264 2.023,0.791c0.176,0.176 0.32,0.616 0.439,1.319c0.059,0.764 -0.029,1.292 -0.262,1.585zM218.42311,181.46653c-1.001,-1.935 -2.264,-4.869 -3.792,-8.8c-0.588,-1.349 -2.174,-4.868 -4.761,-10.56l-4.35,22.176c5.267,-0.996 9.391,-1.759 12.376,-2.288c0.351,-0.233 0.527,-0.41 0.527,-0.528z" fill="#ffffff"/><path d="M300.36031,206.20048c-0.72,1.07 -1.62,2.02 -2.67,2.78c-1.43,1.05 -3.16,1.96 -5.45,2.86c-1.28,0.5 -2.65,0.76 -4.02,0.76c-0.21,0 -0.41,0 -0.62,-0.01l-6,-0.34h-6.35c-0.23,0 -0.47,-0.01 -0.7,-0.02c-1.37,-0.09 -2.23,-0.14 -2.56,-0.16c-0.53,-0.02 -1.07,-0.08 -1.59,-0.17c-5.15,-0.93 -9.08,-4.12 -10.8,-8.75c-0.05,-0.12 -0.09,-0.23 -0.12,-0.34c-0.8,-2.38 -1.54,-7.12 2.41,-12.24c1.92,-2.49 4.06,-3.91 5.9,-4.72v-9.59c-0.06,-1.98 -0.06,-3.98 0,-5.96v-6.03c-2.47,-1.04 -4.6,-2.69 -6.24,-4.89c-0.71,-0.94 -1.26,-1.98 -1.63,-3.1c-0.5,-1.48 -0.75,-2.98 -0.75,-4.46c0,-3.14 1.23,-13.52 17.04,-15.08c2.93,-0.31 6.06,-0.25 8.97,0.21c1.54,0.16 3.11,0.32 4.71,0.48c9.42,0.78 11.82,7.48 12.33,9.52c0.04,0.19 0.08,0.37 0.12,0.55c0.19,1 0.29,2 0.29,3c0,5.38 -2.93,9.87 -7.74,12.2v23.19c0.62,0.27 1.21,0.58 1.78,0.94c0.18,0.11 0.35,0.22 0.52,0.34c2.09,1.48 4.71,4.32 5.36,9.45c0.02,0.22 0.05,0.44 0.06,0.66c0.27,4.16 -1.08,7.14 -2.25,8.92z" fill="#00cccc"/><path d="M291.54531,149.61848c0.058,0.294 0.088,0.587 0.088,0.88c0,1.407 -0.938,2.317 -2.814,2.727c-1.583,0.118 -3.138,0.264 -4.662,0.439c-0.47,0.06 -0.675,0.353 -0.615,0.88c0.058,0.47 0.116,0.938 0.176,1.407c0,1.467 0.058,3.606 0.176,6.421v33.073c0.533,0.118 1.75,0.177 3.647,0.177c1.542,-0.059 2.639,0.118 3.292,0.527c0.415,0.294 0.683,0.91 0.801,1.848c0.058,0.879 -0.088,1.583 -0.438,2.11c-0.643,0.471 -1.635,0.968 -2.978,1.496l-6.308,-0.353h-2.103c-2.103,0 -3.622,0 -4.557,0c-1.812,-0.116 -2.774,-0.176 -2.89,-0.176c-1.287,-0.233 -2.104,-0.82 -2.453,-1.759c-0.177,-0.528 0.052,-1.201 0.687,-2.023c0.634,-0.82 1.296,-1.319 1.986,-1.495c1.61,0.059 3.681,-0.117 6.211,-0.528c0,-3.283 0,-9.676 0,-19.175c-0.06,-1.876 -0.06,-3.753 0,-5.63c0,-2.345 0,-3.987 0,-4.926v-5.894c0.058,-1.407 -0.088,-3.283 -0.44,-5.629c-2.053,0.352 -3.372,0.527 -3.958,0.527c-1.818,0 -3.166,-0.585 -4.046,-1.759c-0.118,-0.353 -0.176,-0.674 -0.176,-0.968c0,-2.287 2.375,-3.664 7.125,-4.135c2.228,-0.233 4.367,-0.176 6.421,0.177c1.7,0.176 3.431,0.352 5.189,0.527c1.584,0.121 2.464,0.53 2.639,1.234z" fill="#ffffff"/></g></g></svg>